<svg xmlns="http://www.w3.org/2000/svg" width="864" height="864" viewBox="0 0 864 864" version="1.1"><path d="M 145.261 218.742 L 145.500 278.500 158.250 278.780 L 171 279.060 171 232.040 L 171 185.020 218.250 184.760 L 265.500 184.500 265.500 172 L 265.500 159.500 205.261 159.242 L 145.022 158.984 145.261 218.742 M 596.640 159.773 C 596.377 160.198, 596.151 166.048, 596.138 172.773 L 596.114 185 643.557 185 L 691 185 691 232.030 L 691 279.060 703.750 278.780 L 716.500 278.500 716.720 218.750 L 716.940 159 657.029 159 C 624.078 159, 596.903 159.348, 596.640 159.773 M 414 228.432 C 404.694 229.879, 396.017 231.969, 386 235.177 C 377.715 237.830, 357.485 248.050, 348.837 253.952 L 342.173 258.500 341.445 269 C 340.631 280.735, 341.469 308.180, 343.034 321.063 C 344.658 334.432, 347.112 348.423, 347.996 349.353 C 348.442 349.823, 350.491 347.573, 352.550 344.353 C 378.315 304.064, 423.596 261.678, 467.250 236.986 C 471.512 234.575, 475 232.329, 475 231.995 C 475 231.661, 470.837 230.554, 465.750 229.534 C 453.858 227.151, 426.046 226.559, 414 228.432 M 483 244.419 C 462.383 255.522, 441.602 269.628, 425.621 283.367 C 420.039 288.166, 419.864 288.453, 422.147 289.064 C 423.469 289.418, 428.814 290.031, 434.025 290.426 C 481.108 294.001, 529.882 309.445, 577.648 335.904 L 586.796 340.972 585.503 336.736 C 576.657 307.762, 558.399 280.115, 536.478 262.500 C 533.740 260.300, 531.275 258.241, 531 257.925 C 528.036 254.516, 498.605 237.898, 495.914 238.113 C 495.136 238.175, 489.325 241.013, 483 244.419 M 318.443 282.008 C 308.239 294.288, 304.352 300.100, 297.846 312.808 C 291.675 324.861, 287.205 337.550, 283.693 352.981 C 281.560 362.354, 281.519 364.199, 281.013 473.428 C 280.731 534.439, 280.769 588.491, 281.097 593.546 C 282.055 608.309, 288.297 618.067, 300.680 624.163 C 306.462 627.009, 308.235 627.399, 315.377 627.394 C 322.010 627.390, 324.545 626.909, 329.196 624.774 C 336.108 621.602, 342.906 615.020, 346.689 607.838 L 349.500 602.500 349.798 557.750 C 349.962 533.138, 350.241 513, 350.420 513 C 350.598 513, 355.038 515.432, 360.287 518.405 C 375.655 527.108, 375.645 527.106, 384.771 522.610 C 404.292 512.995, 428.223 497.064, 446.568 481.474 L 454.186 475 450.688 475 C 436.329 475, 382.318 465.787, 376.844 462.403 C 376.355 462.101, 374.601 459.172, 372.946 455.893 C 371.291 452.615, 368.094 446.921, 365.840 443.239 C 350.918 418.859, 337.008 378.300, 331.119 342 C 327.970 322.589, 326.926 312.010, 326.185 292.008 L 325.500 273.516 318.443 282.008 M 514.022 334.713 C 527.916 363.597, 538.937 400.571, 543.468 433.500 C 545.454 447.927, 547.876 481.495, 547.271 486.192 C 547.009 488.223, 546.971 490.414, 547.187 491.062 C 547.403 491.710, 550.739 488.473, 554.601 483.870 C 572.278 462.797, 583.408 440.203, 589.033 413.970 C 591.453 402.687, 592.813 377.661, 591.554 367.585 L 590.867 362.086 579.183 354.852 C 559.021 342.368, 523.138 325.778, 511.089 323.368 L 508.296 322.809 514.022 334.713 M 522.514 418.250 C 513.270 433.923, 486.985 464.986, 468.736 481.805 C 454.283 495.124, 447.887 500.272, 428.500 514.187 C 421.721 519.053, 400.297 532, 399.024 532 C 398.461 532, 398 532.418, 398 532.929 C 398 533.440, 400.587 534.367, 403.750 534.988 C 406.913 535.610, 410.127 536.327, 410.893 536.582 C 411.659 536.838, 417.912 537.504, 424.788 538.062 C 438.305 539.160, 456.435 538.048, 467.500 535.442 C 470.800 534.665, 473.809 534.023, 474.187 534.015 C 474.565 534.007, 478.326 539.288, 482.546 545.750 C 486.765 552.212, 492.868 561.550, 496.107 566.500 C 499.346 571.450, 507.128 583.375, 513.399 593 C 519.670 602.625, 526.083 612.180, 527.650 614.234 C 534.697 623.469, 548.986 629.283, 559.463 627.179 C 568.663 625.331, 574.636 622.178, 579.950 616.365 C 586.891 608.770, 589.315 601.891, 588.779 591.306 C 588.284 581.528, 586.873 578.505, 572.881 557.251 C 567.721 549.414, 559.013 536.139, 553.530 527.751 C 548.046 519.363, 540.959 508.531, 537.780 503.679 L 532 494.858 531.999 479.679 C 531.999 471.331, 531.550 459.550, 531.002 453.500 C 529.745 439.626, 525.964 415, 525.091 415 C 524.728 415, 523.569 416.462, 522.514 418.250 M 161 637.839 C 161 659.200, 160.703 686.204, 160.341 697.847 L 159.681 719.016 220.091 718.758 L 280.500 718.500 280.780 705.750 L 281.060 693 234.030 693 L 187 693 187 646 L 187 599 174 599 L 161 599 161 637.839 M 691 645.970 L 691 693 643.500 693 L 596 693 596 706 L 596 719 656.507 719 L 717.015 719 716.757 659.250 L 716.500 599.500 703.750 599.220 L 691 598.940 691 645.970" stroke="none" fill="#f8f9f9" fill-rule="evenodd"/><path d="M 86 0.672 C 63.237 4.399, 46.608 12.595, 30.663 27.946 C 16.544 41.538, 7.793 56.362, 2.700 75.312 L 0.500 83.500 0.500 431.500 C 0.500 764.457, 0.579 779.824, 2.318 787 C 6.704 805.095, 14.734 819.614, 27.946 833.337 C 41.538 847.456, 56.362 856.207, 75.312 861.300 L 83.500 863.500 432 863.500 L 780.500 863.500 788.688 861.300 C 807.638 856.207, 822.462 847.456, 836.054 833.337 C 849.819 819.040, 858.266 803.335, 861.641 785.767 C 862.515 781.220, 863.628 776.719, 864.115 775.764 C 865.395 773.252, 865.281 86.708, 864 87.500 C 863.425 87.855, 862.993 86.924, 862.985 85.309 C 862.936 76.424, 855.910 57.355, 848.403 45.732 C 835.206 25.301, 813.716 9.689, 789.203 2.725 L 781.500 0.536 435 0.399 C 244.425 0.324, 87.375 0.447, 86 0.672 M 0.494 432 C 0.494 621.475, 0.609 698.987, 0.750 604.250 C 0.891 509.512, 0.891 354.487, 0.750 259.750 C 0.609 165.012, 0.494 242.525, 0.494 432 M 145.261 218.742 L 145.500 278.500 158.250 278.780 L 171 279.060 171 232.040 L 171 185.020 218.250 184.760 L 265.500 184.500 265.500 172 L 265.500 159.500 205.261 159.242 L 145.022 158.984 145.261 218.742 M 596.640 159.773 C 596.377 160.198, 596.151 166.048, 596.138 172.773 L 596.114 185 643.557 185 L 691 185 691 232.030 L 691 279.060 703.750 278.780 L 716.500 278.500 716.720 218.750 L 716.940 159 657.029 159 C 624.078 159, 596.903 159.348, 596.640 159.773 M 414 228.432 C 404.694 229.879, 396.017 231.969, 386 235.177 C 377.715 237.830, 357.485 248.050, 348.837 253.952 L 342.173 258.500 341.445 269 C 340.631 280.735, 341.469 308.180, 343.034 321.063 C 344.658 334.432, 347.112 348.423, 347.996 349.353 C 348.442 349.823, 350.491 347.573, 352.550 344.353 C 378.315 304.064, 423.596 261.678, 467.250 236.986 C 471.512 234.575, 475 232.329, 475 231.995 C 475 231.661, 470.837 230.554, 465.750 229.534 C 453.858 227.151, 426.046 226.559, 414 228.432 M 483 244.419 C 462.383 255.522, 441.602 269.628, 425.621 283.367 C 420.039 288.166, 419.864 288.453, 422.147 289.064 C 423.469 289.418, 428.814 290.031, 434.025 290.426 C 481.108 294.001, 529.882 309.445, 577.648 335.904 L 586.796 340.972 585.503 336.736 C 576.657 307.762, 558.399 280.115, 536.478 262.500 C 533.740 260.300, 531.275 258.241, 531 257.925 C 528.036 254.516, 498.605 237.898, 495.914 238.113 C 495.136 238.175, 489.325 241.013, 483 244.419 M 318.443 282.008 C 308.239 294.288, 304.352 300.100, 297.846 312.808 C 291.675 324.861, 287.205 337.550, 283.693 352.981 C 281.560 362.354, 281.519 364.199, 281.013 473.428 C 280.731 534.439, 280.769 588.491, 281.097 593.546 C 282.055 608.309, 288.297 618.067, 300.680 624.163 C 306.462 627.009, 308.235 627.399, 315.377 627.394 C 322.010 627.390, 324.545 626.909, 329.196 624.774 C 336.108 621.602, 342.906 615.020, 346.689 607.838 L 349.500 602.500 349.798 557.750 C 349.962 533.138, 350.241 513, 350.420 513 C 350.598 513, 355.038 515.432, 360.287 518.405 C 375.655 527.108, 375.645 527.106, 384.771 522.610 C 404.292 512.995, 428.223 497.064, 446.568 481.474 L 454.186 475 450.688 475 C 436.329 475, 382.318 465.787, 376.844 462.403 C 376.355 462.101, 374.601 459.172, 372.946 455.893 C 371.291 452.615, 368.094 446.921, 365.840 443.239 C 350.918 418.859, 337.008 378.300, 331.119 342 C 327.970 322.589, 326.926 312.010, 326.185 292.008 L 325.500 273.516 318.443 282.008 M 514.022 334.713 C 527.916 363.597, 538.937 400.571, 543.468 433.500 C 545.454 447.927, 547.876 481.495, 547.271 486.192 C 547.009 488.223, 546.971 490.414, 547.187 491.062 C 547.403 491.710, 550.739 488.473, 554.601 483.870 C 572.278 462.797, 583.408 440.203, 589.033 413.970 C 591.453 402.687, 592.813 377.661, 591.554 367.585 L 590.867 362.086 579.183 354.852 C 559.021 342.368, 523.138 325.778, 511.089 323.368 L 508.296 322.809 514.022 334.713 M 522.514 418.250 C 513.270 433.923, 486.985 464.986, 468.736 481.805 C 454.283 495.124, 447.887 500.272, 428.500 514.187 C 421.721 519.053, 400.297 532, 399.024 532 C 398.461 532, 398 532.418, 398 532.929 C 398 533.440, 400.587 534.367, 403.750 534.988 C 406.913 535.610, 410.127 536.327, 410.893 536.582 C 411.659 536.838, 417.912 537.504, 424.788 538.062 C 438.305 539.160, 456.435 538.048, 467.500 535.442 C 470.800 534.665, 473.809 534.023, 474.187 534.015 C 474.565 534.007, 478.326 539.288, 482.546 545.750 C 486.765 552.212, 492.868 561.550, 496.107 566.500 C 499.346 571.450, 507.128 583.375, 513.399 593 C 519.670 602.625, 526.083 612.180, 527.650 614.234 C 534.697 623.469, 548.986 629.283, 559.463 627.179 C 568.663 625.331, 574.636 622.178, 579.950 616.365 C 586.891 608.770, 589.315 601.891, 588.779 591.306 C 588.284 581.528, 586.873 578.505, 572.881 557.251 C 567.721 549.414, 559.013 536.139, 553.530 527.751 C 548.046 519.363, 540.959 508.531, 537.780 503.679 L 532 494.858 531.999 479.679 C 531.999 471.331, 531.550 459.550, 531.002 453.500 C 529.745 439.626, 525.964 415, 525.091 415 C 524.728 415, 523.569 416.462, 522.514 418.250 M 161 637.839 C 161 659.200, 160.703 686.204, 160.341 697.847 L 159.681 719.016 220.091 718.758 L 280.500 718.500 280.780 705.750 L 281.060 693 234.030 693 L 187 693 187 646 L 187 599 174 599 L 161 599 161 637.839 M 691 645.970 L 691 693 643.500 693 L 596 693 596 706 L 596 719 656.507 719 L 717.015 719 716.757 659.250 L 716.500 599.500 703.750 599.220 L 691 598.940 691 645.970" stroke="none" fill="#042c44" fill-rule="evenodd"/></svg>